<?xml version="1.0" encoding="iso-8859-1"?>
<!-- Generator: Adobe Illustrator 16.0.0, SVG Export Plug-In . SVG Version: 6.00 Build 0)  -->
<!DOCTYPE svg PUBLIC "-//W3C//DTD SVG 1.1//EN" "http://www.w3.org/Graphics/SVG/1.1/DTD/svg11.dtd">
<svg xmlns="http://www.w3.org/2000/svg" xmlns:xlink="http://www.w3.org/1999/xlink" version="1.1" id="Capa_1" x="0px" y="0px" width="512px" height="512px" viewBox="0 0 481.764 481.764" style="enable-background:new 0 0 481.764 481.764;" xml:space="preserve">
<g>
	<g id="Layer_2_25_">
		<path d="M372.816,322.828c-60.436-21.786-79.748-10.809-79.748-50.174c0-1.879,0.119-5.41,0.34-9.022h2.957    c41.301,3.012,81.092,5.89,89.947-0.301c14.143-9.88-34.811-25.105-34.811-152.92c0-64.582-42.562-110.41-107.145-110.41    c-0.549,0-1.088,0.033-1.629,0.043c-0.152-0.004-0.307-0.006-0.455-0.014V0.018c-0.242,0-0.484-0.018-0.727-0.018    c-0.076,0-0.15,0.004-0.227,0.004c-0.073,0-0.146-0.004-0.223-0.004c-0.071,0-0.142,0.004-0.213,0.006    C240.812,0.004,240.741,0,240.67,0c-0.076,0-0.149,0.004-0.223,0.004c-0.076,0-0.15-0.004-0.227-0.004    c-0.242,0-0.484,0.018-0.727,0.018V0.03c-0.149,0.008-0.303,0.01-0.455,0.014c-0.542-0.01-1.081-0.043-1.629-0.043    c-64.581,0-107.145,45.828-107.145,110.41c0,127.814-48.951,143.041-34.811,152.92c8.856,6.188,48.647,3.312,89.948,0.301h2.958    c0.22,3.612,0.338,7.146,0.338,9.022c0,39.365-19.313,28.388-79.747,50.174c-60.62,21.863-78.095,44.152-78.095,59.355    c0,15.181,0,99.58,0,99.58h209.438h0.302h0.286h0.286h0.302h209.439c0,0,0-84.399,0-99.58    C450.91,366.982,433.436,344.693,372.816,322.828z" fill="#0b6ba8"/>
	</g>
</g>
<g>
</g>
<g>
</g>
<g>
</g>
<g>
</g>
<g>
</g>
<g>
</g>
<g>
</g>
<g>
</g>
<g>
</g>
<g>
</g>
<g>
</g>
<g>
</g>
<g>
</g>
<g>
</g>
<g>
</g>
</svg>
