<?xml version="1.0" encoding="UTF-8" standalone="no"?>
<!-- Generator: Adobe Illustrator 16.0.0, SVG Export Plug-In . SVG Version: 6.00 Build 0)  -->

<svg
   xmlns:dc="http://purl.org/dc/elements/1.1/"
   xmlns:cc="http://creativecommons.org/ns#"
   xmlns:rdf="http://www.w3.org/1999/02/22-rdf-syntax-ns#"
   xmlns:svg="http://www.w3.org/2000/svg"
   xmlns="http://www.w3.org/2000/svg"
   xmlns:sodipodi="http://sodipodi.sourceforge.net/DTD/sodipodi-0.dtd"
   xmlns:inkscape="http://www.inkscape.org/namespaces/inkscape"
   version="1.1"
   id="Capa_1"
   x="0px"
   y="0px"
   width="512px"
   height="512px"
   viewBox="0 0 40.012 40.012"
   style="enable-background:new 0 0 40.012 40.012;"
   xml:space="preserve"
   sodipodi:docname="silhouette-h.svg"
   inkscape:version="0.92.3 (d244b95, 2018-08-02)"><metadata
   id="metadata41"><rdf:RDF><cc:Work
       rdf:about=""><dc:format>image/svg+xml</dc:format><dc:type
         rdf:resource="http://purl.org/dc/dcmitype/StillImage" /></cc:Work></rdf:RDF></metadata><defs
   id="defs39" /><sodipodi:namedview
   pagecolor="#ffffff"
   bordercolor="#666666"
   borderopacity="1"
   objecttolerance="10"
   gridtolerance="10"
   guidetolerance="10"
   inkscape:pageopacity="0"
   inkscape:pageshadow="2"
   inkscape:window-width="844"
   inkscape:window-height="885"
   id="namedview37"
   showgrid="false"
   inkscape:zoom="0.4609375"
   inkscape:cx="351.08294"
   inkscape:cy="256"
   inkscape:window-x="1794"
   inkscape:window-y="139"
   inkscape:window-maximized="0"
   inkscape:current-layer="Capa_1" />
<g
   id="g4"
   transform="matrix(1,0,0,1.1191777,0,-2.3154494)">
	<path
   d="M 40.012,37.789 H 0 L 1.104,31.98 c 0.008,-1.704 1.204,-1.745 2.631,-2.316 l 6.67,-2.671 c 0.102,-0.04 0.201,-0.082 0.301,-0.127 l 0.007,-0.026 0.019,-0.067 0.019,-0.067 c 1.264,-0.571 2.354,-1.36 2.685,-1.909 0.223,-0.371 0.467,-0.511 0.647,-0.35 0.036,0.002 0.065,0.021 0.086,0.048 0.188,-0.569 0.376,-1.141 0.563,-1.71 0.062,-0.219 0.193,-0.11 0.26,0.057 l -0.146,-0.58 -0.083,-1.044 c -0.13,-0.139 -0.234,-0.254 -0.304,-0.332 -0.438,-0.497 -0.468,-1.81 -0.687,-2.13 -0.219,-0.32 -0.651,-0.39 -1.089,-1.879 -0.437,-1.491 -0.966,-3.62 -0.405,-3.655 0.053,-0.003 0.107,0.009 0.166,0.031 -0.037,-0.208 -0.08,-0.211 -0.127,-0.502 -0.084,-0.557 -0.406,-1.471 -0.437,-2.013 -0.06,-1.207 0.244,-4.611 0.928,-5.747 0.685,-1.136 1.757,-2.096 3.285,-2.438 1.341,-0.301 5.304,-0.558 6.562,0 0.422,0.186 0.938,0.458 1.455,0.788 0.862,0.548 1.729,1.25 2.158,1.959 0.688,1.135 0.887,4.229 0.824,5.438 -0.047,0.916 -0.256,2.157 -0.354,2.706 0.16,-0.144 0.315,-0.231 0.455,-0.224 0.56,0.035 0.027,2.164 -0.408,3.655 -0.437,1.489 -0.87,1.559 -1.088,1.879 -0.219,0.32 -0.25,1.633 -0.685,2.13 -0.067,0.074 -0.167,0.183 -0.289,0.313 l -0.075,1.278 c -0.043,0.707 0.145,0.054 0.213,0.308 0.045,0.137 0.343,1.063 0.521,1.553 0.074,0.198 0.038,0.301 0.221,0.207 l 0.008,-0.007 0.006,-0.002 0.009,-0.003 10e-4,-10e-4 0.004,-0.002 0.01,-0.005 c 0.151,-0.052 0.331,0.067 0.51,0.336 v 0.002 l 0.015,0.017 0.003,0.007 0.018,0.027 c 0.021,0.033 0.043,0.066 0.063,0.102 l 0.005,0.009 0.016,0.019 c 0.385,0.524 1.43,1.271 2.615,1.809 v 0.004 c 0.112,0.05 0.229,0.1 0.344,0.145 l 6.67,2.671 c 1.428,0.571 2.623,0.612 2.631,2.316 z"
   id="path2"
   inkscape:connector-curvature="0"
   style="fill:#0b6ba8" />
</g>
<g
   id="g6">
</g>
<g
   id="g8">
</g>
<g
   id="g10">
</g>
<g
   id="g12">
</g>
<g
   id="g14">
</g>
<g
   id="g16">
</g>
<g
   id="g18">
</g>
<g
   id="g20">
</g>
<g
   id="g22">
</g>
<g
   id="g24">
</g>
<g
   id="g26">
</g>
<g
   id="g28">
</g>
<g
   id="g30">
</g>
<g
   id="g32">
</g>
<g
   id="g34">
</g>
</svg>