<?xml version="1.0" encoding="UTF-8" standalone="no"?>
<!-- Created with Inkscape (http://www.inkscape.org/) -->

<svg
   xmlns:dc="http://purl.org/dc/elements/1.1/"
   xmlns:cc="http://creativecommons.org/ns#"
   xmlns:rdf="http://www.w3.org/1999/02/22-rdf-syntax-ns#"
   xmlns:svg="http://www.w3.org/2000/svg"
   xmlns="http://www.w3.org/2000/svg"
   xmlns:sodipodi="http://sodipodi.sourceforge.net/DTD/sodipodi-0.dtd"
   xmlns:inkscape="http://www.inkscape.org/namespaces/inkscape"
   width="37.110641mm"
   height="19.999748mm"
   viewBox="0 0 131.4944 70.865249"
   id="svg4050"
   version="1.1"
   inkscape:version="0.91 r13725"
   sodipodi:docname="lab.svg">
  <defs
     id="defs4052" />
  <sodipodi:namedview
     id="base"
     pagecolor="#ffffff"
     bordercolor="#666666"
     borderopacity="1.0"
     inkscape:pageopacity="0.0"
     inkscape:pageshadow="2"
     inkscape:zoom="5.6"
     inkscape:cx="55.892376"
     inkscape:cy="39.279959"
     inkscape:document-units="px"
     inkscape:current-layer="layer1"
     showgrid="false"
     fit-margin-top="0"
     fit-margin-left="0"
     fit-margin-right="0"
     fit-margin-bottom="0"
     inkscape:window-width="1920"
     inkscape:window-height="1050"
     inkscape:window-x="0"
     inkscape:window-y="30"
     inkscape:window-maximized="1" />
  <metadata
     id="metadata4055">
    <rdf:RDF>
      <cc:Work
         rdf:about="">
        <dc:format>image/svg+xml</dc:format>
        <dc:type
           rdf:resource="http://purl.org/dc/dcmitype/StillImage" />
        <dc:title></dc:title>
      </cc:Work>
    </rdf:RDF>
  </metadata>
  <g
     inkscape:label="Calque 1"
     inkscape:groupmode="layer"
     id="layer1"
     transform="translate(-52.824226,-32.190478)">
    <g
       id="g3803"
       transform="matrix(0.39946911,0,0,0.39946911,-199.36153,-57.004274)">
      <g
         id="g4946"
         transform="translate(37.013658,-87.736078)">
        <g
           id="g5223"
           transform="matrix(1.0400187,0,0,1.0400187,-204.0197,-81.62432)">
          <path
             sodipodi:nodetypes="cccccccc"
             inkscape:connector-curvature="0"
             id="path4211-8-7"
             d="m 837.92773,377.53516 -0.004,0.002 67.61914,39.03906 0,78.26367 12.31641,-6.92968 0,-78.26172 -55.62305,-32.11328 z"
             style="color:#000000;clip-rule:nonzero;display:inline;overflow:visible;visibility:visible;opacity:1;isolation:auto;mix-blend-mode:normal;color-interpolation:sRGB;color-interpolation-filters:linearRGB;solid-color:#000000;solid-opacity:1;fill:#ea2429;fill-opacity:1;fill-rule:evenodd;stroke:none;stroke-width:4;stroke-linecap:butt;stroke-linejoin:miter;stroke-miterlimit:4;stroke-dasharray:none;stroke-dashoffset:0;stroke-opacity:1;color-rendering:auto;image-rendering:auto;shape-rendering:auto;text-rendering:auto;enable-background:accumulate" />
          <path
             sodipodi:nodetypes="cccccccc"
             inkscape:connector-curvature="0"
             id="path4211-8-7-2"
             d="m 917.85985,409.6414 -0.004,-0.002 7.6e-4,78.07943 -67.77833,39.13183 12.15948,7.20149 67.77664,-39.13086 -6.1e-4,-64.22762 z"
             style="color:#000000;clip-rule:nonzero;display:inline;overflow:visible;visibility:visible;opacity:1;isolation:auto;mix-blend-mode:normal;color-interpolation:sRGB;color-interpolation-filters:linearRGB;solid-color:#000000;solid-opacity:1;fill:#f39269;fill-opacity:1;fill-rule:evenodd;stroke:none;stroke-width:4;stroke-linecap:butt;stroke-linejoin:miter;stroke-miterlimit:4;stroke-dasharray:none;stroke-dashoffset:0;stroke-opacity:1;color-rendering:auto;image-rendering:auto;shape-rendering:auto;text-rendering:auto;enable-background:accumulate" />
          <path
             sodipodi:nodetypes="cccccccc"
             inkscape:connector-curvature="0"
             id="path4211-8-7-2-9"
             d="m 930.01162,494.94109 -2.6e-4,-0.004 -67.61839,39.04037 -67.77833,-39.13184 -0.15693,14.13117 67.77664,39.13086 55.62244,-32.11434 z"
             style="color:#000000;clip-rule:nonzero;display:inline;overflow:visible;visibility:visible;opacity:1;isolation:auto;mix-blend-mode:normal;color-interpolation:sRGB;color-interpolation-filters:linearRGB;solid-color:#000000;solid-opacity:1;fill:#778591;fill-opacity:1;fill-rule:evenodd;stroke:none;stroke-width:4;stroke-linecap:butt;stroke-linejoin:miter;stroke-miterlimit:4;stroke-dasharray:none;stroke-dashoffset:0;stroke-opacity:1;color-rendering:auto;image-rendering:auto;shape-rendering:auto;text-rendering:auto;enable-background:accumulate" />
          <path
             sodipodi:nodetypes="cccccccc"
             inkscape:connector-curvature="0"
             id="path4211-8-7-2-9-9"
             d="m 862.1661,548.06168 0.003,-0.002 -67.61914,-39.03906 0,-78.26367 -12.31642,6.92968 0,78.26172 55.62306,32.11328 z"
             style="color:#000000;clip-rule:nonzero;display:inline;overflow:visible;visibility:visible;opacity:1;isolation:auto;mix-blend-mode:normal;color-interpolation:sRGB;color-interpolation-filters:linearRGB;solid-color:#000000;solid-opacity:1;fill:#b1b0b3;fill-opacity:1;fill-rule:evenodd;stroke:none;stroke-width:4;stroke-linecap:butt;stroke-linejoin:miter;stroke-miterlimit:4;stroke-dasharray:none;stroke-dashoffset:0;stroke-opacity:1;color-rendering:auto;image-rendering:auto;shape-rendering:auto;text-rendering:auto;enable-background:accumulate" />
          <path
             sodipodi:nodetypes="cccccccc"
             inkscape:connector-curvature="0"
             id="path4211-8-7-2-9-9-0"
             d="m 782.39278,515.87726 0.003,0.002 -7.5e-4,-78.07942 67.77833,-39.13184 -12.15949,-7.20149 -67.77664,39.13086 6.2e-4,64.22762 z"
             style="color:#000000;clip-rule:nonzero;display:inline;overflow:visible;visibility:visible;opacity:1;isolation:auto;mix-blend-mode:normal;color-interpolation:sRGB;color-interpolation-filters:linearRGB;solid-color:#000000;solid-opacity:1;fill:#1973b4;fill-opacity:1;fill-rule:evenodd;stroke:none;stroke-width:4;stroke-linecap:butt;stroke-linejoin:miter;stroke-miterlimit:4;stroke-dasharray:none;stroke-dashoffset:0;stroke-opacity:1;color-rendering:auto;image-rendering:auto;shape-rendering:auto;text-rendering:auto;enable-background:accumulate" />
          <path
             sodipodi:nodetypes="cccccccc"
             inkscape:connector-curvature="0"
             id="path4211-8-7-2-9-9-0-8"
             d="m 770.23746,430.70172 -2.3e-4,0.004 67.61838,-39.04036 67.77834,39.13183 0.15692,-14.13117 -67.77664,-39.13086 -55.62244,32.11434 z"
             style="color:#000000;clip-rule:nonzero;display:inline;overflow:visible;visibility:visible;opacity:1;isolation:auto;mix-blend-mode:normal;color-interpolation:sRGB;color-interpolation-filters:linearRGB;solid-color:#000000;solid-opacity:1;fill:#89a6d3;fill-opacity:1;fill-rule:evenodd;stroke:none;stroke-width:4;stroke-linecap:butt;stroke-linejoin:miter;stroke-miterlimit:4;stroke-dasharray:none;stroke-dashoffset:0;stroke-opacity:1;color-rendering:auto;image-rendering:auto;shape-rendering:auto;text-rendering:auto;enable-background:accumulate" />
          <path
             id="path5211"
             d="m 838.25504,520.4827 c 0,0 -0.6506,-2.37935 -3.1275,-3.10492 -3.2737,-0.95901 -4.2509,-1.1549 -9.9122,-2.54587 -5.6613,-1.39097 -16.37328,-4.22981 -24.0897,-5.65181 -7.7149,-1.42172 -14.57133,-2.69379 -21.81891,-4.39603 -2.04971,-0.48141 -4.29452,-0.87543 -6.12613,-1.91383 -0.97652,-0.55362 -1.88404,-1.08833 -2.65228,-1.84238 -0.85707,-0.84124 -1.61795,-1.90039 -2.11023,-2.92014 -0.31716,-0.65699 -0.5015,-1.66629 -0.62207,-2.52456 -0.15582,-1.10925 -0.30066,-2.45766 -0.1261,-3.35806 0.23892,-1.23239 0.47559,-1.71727 0.92901,-2.3737 0.45342,-0.65643 0.97778,-1.30458 1.63403,-1.42958 l 0.004,1.5635 c -0.20534,0.12321 -0.76423,1.09544 -0.88729,1.57511 -0.19783,0.77111 -0.25378,1.58764 -0.18697,2.38092 0.0692,0.82192 0.0899,1.40639 0.60358,2.39976 0.51369,0.99337 0.6884,1.68099 1.38483,2.556 0.50207,0.63081 1.16691,1.25833 1.86664,1.7433 0.62402,0.43251 1.44033,0.77689 2.04008,1.01304 0.94356,0.37152 1.97443,0.46958 2.9739,0.64098 4.436,0.7607 5.88878,0.68122 13.39286,1.71523 7.50404,1.03401 19.39654,2.76518 29.06254,4.35342 4.3856,0.72061 8.8182,1.25015 13.125,2.34802 1.3031,0.33218 3.8267,1.27741 3.8267,1.27741 2.2187,0.74065 4.1386,1.72942 5.8594,3.1207 1.8045,1.48194 2.393,3.56859 2.3484,5.98157 0,1.10586 -0.3157,3.28286 -0.3157,3.28286 l -1.2167,-0.65976 c -0.618,-0.25656 -2.8197,-1.67184 -5.8151,-3.38586 z"
             style="fill:#faae3c"
             inkscape:connector-curvature="0"
             sodipodi:nodetypes="cssssssssszccscsscsssssccccccc" />
          <path
             id="path5209"
             d="m 796.49366,485.84474 c 0.9743,-1.41312 0.7021,-1.80032 0.7985,-5.08705 0.048,-1.64337 0.062,-8.00005 0.3761,-12.07088 0.3142,-4.07084 0.9288,-5.85584 0.9288,-5.85584 0,0 0.5763,11.7046 0.463,17.60045 -0.033,1.6936 0.062,3.53501 -0.5192,5.1648 -0.3192,0.89528 -0.873,1.79193 -1.5741,2.37762 -0.7011,0.58569 -2.4164,1.03831 -2.4164,1.03831 l 0.031,-2.07433 c 0,0 1.4957,-0.48856 1.9125,-1.09308 z"
             style="fill:#faae3c"
             inkscape:connector-curvature="0"
             sodipodi:nodetypes="accccczcca" />
          <path
             id="path5207"
             d="m 802.74826,461.05049 c 0.2679,-0.6981 1.0034,-3.27653 1.4714,-4.9246 0.3447,-1.21385 0.4715,-2.50234 0.9842,-3.65533 0.9185,-2.06549 2.2532,-3.95318 3.4803,-5.85165 1.227,-1.89847 2.3359,-3.83231 3.9936,-5.36059 1.1762,-1.08434 2.6449,-2.05659 4.0066,-2.89528 1.3621,-0.83893 2.687,-1.63205 4.1629,-2.13635 1.3273,-0.45352 2.7577,-0.89372 4.1366,-1.15085 1.3789,-0.25713 2.7515,-0.39474 4.1366,-0.39193 2.3552,0.005 4.6936,0.24097 7.0312,0.47181 2.3522,0.23227 4.7237,0.40647 7.0313,0.91823 2.3878,0.52955 4.6634,1.47649 6.9951,2.21474 l 6.9951,2.21474 -4.5271,2.64615 -0.1243,0.0727 c -2.5445,1.48734 -7.5505,4.93411 -11.1558,7.67998 -0.019,0.0148 -0.039,0.0295 -0.058,0.0443 -3.6093,2.75299 -6.982,4.90713 -10.686,7.01244 -1.329,0.75539 -2.6513,1.59527 -4.1235,2.00702 -1.3908,0.38899 -2.8537,0.53456 -4.2917,0.66792 -1.4379,0.13335 -2.8885,0.15249 -4.3139,-0.091 -0.9082,-0.15515 -1.7446,-0.48122 -2.6005,-0.77338 -0.8719,-0.29766 -1.8563,-0.45989 -2.4442,-1.01892 -0.1992,-0.18947 -0.2918,-0.57745 -0.1339,-0.80255 4.613,-6.57578 15.4488,-11.22784 24.375,-14.33949 l 2.3437,-0.81702 -3.9746,0.47701 c -2.1861,0.26236 -6.2554,1.33035 -9.043,2.37331 l -5.0683,1.89629 -5.5325,3.57581 c -3.0428,1.9667 -6.4909,4.76913 -9.5429,7.39085 -1.3995,1.20226 -4.0104,3.81502 -4.0104,3.81502 z"
             style="fill:#faae3c"
             inkscape:connector-curvature="0" />
          <path
             id="path4062"
             d="m 798.72846,452.54829 c 0,-0.051 -0.01,-0.16175 -0.01,-0.16175 -0.09,-1.71814 -0.9163,-6.04298 -1.8795,-9.80918 0,0 -0.9481,-4.79753 -1.8092,-7.07401 -0.8525,-2.25367 -3.2922,-6.43533 -3.2922,-6.43533 -1.81072,-3.53943 -4.39727,-7.70095 -5.74789,-9.24783 -2.97327,-3.4053 -2.83933,-2.89746 1.62122,6.14704 0,0 2.57293,4.61778 3.49397,7.08454 0.7505,2.01002 1.0886,4.15071 1.6329,6.22606 0.5444,2.07535 1.326,3.52879 1.3652,5.37784 0.018,0.92645 0.3151,1.54884 -0.3534,1.9114 -0.7699,0.41753 -2.204,-0.095 -3.05345,-0.30815 0,0 -1.99084,-0.89049 -2.86084,-1.44362 -1.04354,-0.66348 -1.83964,-1.65364 -2.73246,-2.50924 -1.03635,-0.99316 -2.6788,-2.97813 -3.58066,-4.74139 -1.19997,-2.34608 -1.56878,-5.0315 -2.32681,-7.55527 -1.66189,-5.53307 -3.76581,-12.57354 -4.86984,-16.63357 0,0 -1.27937,-4.938 -2.00733,-7.38186 -0.1956,-0.65667 -0.63391,-1.95537 -0.63391,-1.95537 0,0 1.04871,0.68943 1.59823,0.99106 2.51725,1.38172 5.17399,2.4925 7.76098,3.73875 2.58699,1.24625 5.33939,2.19552 7.76098,3.73875 1.93163,1.23099 3.90871,2.59788 5.71971,4.08404 1.7383,1.42654 3.2683,3.03358 4.6036,4.84296 1.1477,1.5553 2.3358,2.93854 3.218,4.58379 0.9489,1.76942 1.8271,3.71227 2.1913,5.61057 0.4254,2.21675 0.4435,4.80578 0.2457,7.19852 -0.1766,2.13694 -0.6104,4.26606 -1.2721,6.30565 -0.5831,1.79724 -1.5696,3.4375 -2.3544,5.15625 l -2.3544,5.15625 z"
             style="fill:#faae3c"
             inkscape:connector-curvature="0" />
        </g>
        <g
           id="g3789">
          <g
             transform="matrix(1.0205839,0,0,0.94652376,-154.88589,22.973438)"
             id="g5239">
            <g
               id="g5243">
              <text
                 sodipodi:linespacing="125%"
                 id="text5235"
                 y="423.36218"
                 x="911.50946"
                 style="font-style:normal;font-variant:normal;font-weight:600;font-stretch:normal;font-size:83.97874451px;line-height:125%;font-family:'URW Gothic L';-inkscape-font-specification:'URW Gothic L, Semi-Bold';text-align:start;letter-spacing:0px;word-spacing:0px;writing-mode:lr-tb;text-anchor:start;fill:#000000;fill-opacity:1;stroke:none;stroke-width:1px;stroke-linecap:butt;stroke-linejoin:miter;stroke-opacity:1"
                 xml:space="preserve"><tspan
                   style="font-style:normal;font-variant:normal;font-weight:600;font-stretch:normal;font-size:83.97874451px;line-height:125%;font-family:'URW Gothic L';-inkscape-font-specification:'URW Gothic L, Semi-Bold';text-align:start;writing-mode:lr-tb;text-anchor:start"
                   y="423.36218"
                   x="911.50946"
                   id="tspan5237"
                   sodipodi:role="line">LAB</tspan></text>
            </g>
          </g>
          <text
             sodipodi:linespacing="125%"
             id="text3743"
             y="455.08725"
             x="781.25916"
             style="font-style:normal;font-weight:normal;font-size:14.55263805px;line-height:125%;font-family:sans-serif;letter-spacing:0px;word-spacing:0px;fill:#000000;fill-opacity:1;stroke:none;stroke-width:1px;stroke-linecap:butt;stroke-linejoin:miter;stroke-opacity:1"
             xml:space="preserve"><tspan
               y="455.08725"
               x="781.25916"
               id="tspan3745"
               sodipodi:role="line"><tspan
                 id="tspan3759"
                 style="font-style:normal;font-variant:normal;font-weight:normal;font-stretch:normal;font-size:14.55263805px;line-height:125%;font-family:'URW Gothic L';-inkscape-font-specification:'URW Gothic L, Normal';text-align:start;writing-mode:lr-tb;text-anchor:start">M</tspan><tspan
                 id="tspan3749"
                 style="font-style:normal;font-variant:normal;font-weight:normal;font-stretch:normal;font-size:10.91447926px;line-height:125%;font-family:'URW Gothic L';-inkscape-font-specification:'URW Gothic L, Normal';text-align:start;writing-mode:lr-tb;text-anchor:start">INISTÈRE DE L'</tspan><tspan
                 id="tspan3761"
                 style="font-style:normal;font-variant:normal;font-weight:normal;font-stretch:normal;font-size:14.55263805px;line-height:125%;font-family:'URW Gothic L';-inkscape-font-specification:'URW Gothic L, Normal';text-align:start;writing-mode:lr-tb;text-anchor:start">I</tspan><tspan
                 id="tspan3747"
                 style="font-style:normal;font-variant:normal;font-weight:normal;font-stretch:normal;font-size:10.91447926px;line-height:125%;font-family:Ubuntu;-inkscape-font-specification:'Ubuntu, Normal';text-align:start;writing-mode:lr-tb;text-anchor:start">NTÉRIEUR</tspan></tspan></text>
          <path
             inkscape:connector-curvature="0"
             id="path3763"
             d="m 780.38583,438.61807 c 137.88582,0 137.53227,0 137.53227,0"
             style="fill:none;fill-rule:evenodd;stroke:#000000;stroke-width:1px;stroke-linecap:butt;stroke-linejoin:miter;stroke-opacity:1" />
          <path
             inkscape:connector-curvature="0"
             id="path3763-9"
             d="m 780.38583,348.46196 c 137.88582,0 137.53227,0 137.53227,0"
             style="fill:none;fill-rule:evenodd;stroke:#000000;stroke-width:1px;stroke-linecap:butt;stroke-linejoin:miter;stroke-opacity:1" />
        </g>
      </g>
    </g>
  </g>
</svg>
