<svg id="Calque_1" data-name="Calque 1" xmlns="http://www.w3.org/2000/svg" viewBox="0 0 482.68 244.85"><defs><style>.cls-1{fill:#878787;}.cls-2{fill:#f28d6e;}.cls-3{fill:#e30613;}.cls-4{fill:#94acda;}.cls-5{fill:#1d71b8;}.cls-6{fill:#c6c6c6;}.cls-7{fill:#1d1d1b;}.cls-8{fill:none;stroke:#1d1d1b;stroke-miterlimit:10;stroke-width:1.86px;}.cls-9{fill:#f9b233;}</style></defs><title>Plan de travail 1</title><polygon class="cls-1" points="57.08 156.68 57.26 171.32 126.51 210.07 182.35 176.88 194.57 155.09 126.36 195.59 57.08 156.68"/><polygon class="cls-2" points="113.55 188.5 126.32 195.66 194.5 155.07 193.68 90.11 180.92 68.63 181.89 147.96 113.55 188.5"/><polygon class="cls-3" points="169.35 155.51 181.93 148.03 180.87 68.69 124.2 36.92 99.22 37.23 168.4 76.06 169.35 155.51"/><polygon class="cls-4" points="168.67 90.69 168.49 76.05 99.24 37.3 43.4 70.49 31.18 92.28 99.39 51.78 168.67 90.69"/><polygon class="cls-5" points="112.2 58.87 99.43 51.71 31.25 92.3 32.07 157.26 44.83 178.74 43.86 99.41 112.2 58.87"/><polygon class="cls-6" points="56.4 91.86 43.82 99.34 44.88 178.68 101.55 210.45 126.53 210.14 57.35 171.31 56.4 91.86"/><path class="cls-7" d="M215.89,68.22h23.3V139h27v20.46H215.89Z"/><path class="cls-7" d="M293.42,159.43H268.15l36.12-91.21h20.09l35,91.21H333.85l-4.31-13.19H297.61ZM313.26,96l-9.86,31.8h20.1Z"/><path class="cls-7" d="M368.73,68.22h33.53c9.36,0,16.88,2.09,22.06,6.16s8.13,10,8.13,17.75a20.59,20.59,0,0,1-10.6,18.37c14.67,5.17,15,17.38,15,21.2,0,7.27-2.83,15.28-8.38,19.84-8.38,7-14.42,7.89-29.83,7.89H368.73ZM392,102.85h8.26a16.56,16.56,0,0,0,6.17-.86c2.09-1,3.69-2.83,3.69-6.41s-1.6-5.17-3.57-6a16.22,16.22,0,0,0-6.29-.86H392ZM392,139h11a17.3,17.3,0,0,0,6.91-1.11c2.59-1.11,4.68-3.33,4.68-7.64,0-4-2-5.92-4.44-6.9a19.11,19.11,0,0,0-7.15-1H392Z"/><path class="cls-7" d="M218.53,208V190.75h2.7l6.39,14.47L234,190.75h2.7V208h-1.82l0-15.33L228.22,208H227l-6.71-15.33,0,15.33Z"/><path class="cls-7" d="M239.61,195.92H241V208h-1.34Z"/><path class="cls-7" d="M251.83,206V195.92h1.3V208h-1.3l-7.16-10.16,0,10.16h-1.31V195.92h1.37Z"/><path class="cls-7" d="M255.54,195.92h1.33V208h-1.33Z"/><path class="cls-7" d="M260.07,204.63a2.42,2.42,0,0,0,2.41,2.43,2.36,2.36,0,0,0,2.42-2.3c0-1.69-1.45-2.07-2.86-2.53-1-.29-3.08-.91-3.08-3.19a3.35,3.35,0,0,1,3.59-3.33,3.24,3.24,0,0,1,3.42,3.11h-1.33a2.18,2.18,0,0,0-4.34.1c0,1.47,1.17,1.83,3,2.45,1.14.44,2.94,1.08,2.94,3.29a3.52,3.52,0,0,1-3.74,3.54,3.56,3.56,0,0,1-3.78-3.57Z"/><path class="cls-7" d="M269.92,197.11h-3v-1.19h7.31v1.19h-3V208h-1.36Z"/><path class="cls-7" d="M275.58,195.92h6.69v1.19h-5.35v4.19h5.32v1.19h-5.32v4.31h5.35V208h-6.69Zm5.17-1.48-.39.78-3.93-2.09.42-.88Z"/><path class="cls-7" d="M284.29,195.92h3.15a6.17,6.17,0,0,1,3.39.62,4.1,4.1,0,0,1,.93,5.61,3.31,3.31,0,0,1-2.69,1.32l3,4.52h-1.46l-3.41-5.27h.39a4,4,0,0,0,2.67-.62,2.92,2.92,0,0,0,.92-2.21,2.85,2.85,0,0,0-1.19-2.34,4.43,4.43,0,0,0-2.45-.44h-1.89V208h-1.36Z"/><path class="cls-7" d="M294,195.92h6.69v1.19h-5.35v4.19h5.32v1.19h-5.32v4.31h5.35V208H294Z"/><path class="cls-7" d="M309.52,195.92h3.6a6,6,0,0,1,4.75,1.81,6,6,0,0,1,1.45,4.21c0,3.64-2.07,6.05-6.13,6.05h-3.67Zm1.34,10.88h2.39c3.1,0,4.72-1.91,4.72-4.81a5.14,5.14,0,0,0-1.18-3.52,4.58,4.58,0,0,0-3.54-1.36h-2.39Z"/><path class="cls-7" d="M321.18,195.92h6.69v1.19h-5.35v4.19h5.32v1.19h-5.32v4.31h5.35V208h-6.69Z"/><path class="cls-7" d="M336.73,195.92h1.36V206.8h4.6V208h-6Z"/><path class="cls-7" d="M345.81,190.75h1.63l-1.82,4.33h-1.45Z"/><path class="cls-7" d="M351.21,190.75h1.91V208h-1.91Z"/><path class="cls-7" d="M364.53,206l0-10.08h1.31V208h-1.31l-7.16-10.16,0,10.16h-1.3V195.92h1.37Z"/><path class="cls-7" d="M370.11,197.11h-3v-1.19h7.3v1.19h-3V208h-1.35Z"/><path class="cls-7" d="M375.77,195.92h6.68v1.19H377.1v4.19h5.32v1.19H377.1v4.31h5.35V208h-6.68Zm5.12-3.72.44.88-3.93,2.11-.39-.79Z"/><path class="cls-7" d="M384.48,195.92h3.15a6.17,6.17,0,0,1,3.39.62,3.83,3.83,0,0,1,1.65,3.25,4,4,0,0,1-.72,2.36,3.32,3.32,0,0,1-2.69,1.32l3,4.52h-1.47l-3.41-5.27h.39a4.08,4.08,0,0,0,2.68-.62,3,3,0,0,0,.91-2.21,2.85,2.85,0,0,0-1.19-2.34,4.39,4.39,0,0,0-2.45-.44h-1.89V208h-1.35Z"/><path class="cls-7" d="M394.17,195.92h1.33V208h-1.33Z"/><path class="cls-7" d="M397.93,195.92h6.69v1.19h-5.35v4.19h5.32v1.19h-5.32v4.31h5.35V208h-6.69Z"/><path class="cls-7" d="M408.08,195.92v7.65a3.7,3.7,0,0,0,.57,2.43,2.57,2.57,0,0,0,2.11,1,2.52,2.52,0,0,0,2.07-1,3.69,3.69,0,0,0,.57-2.45v-7.65h1.34v7.65a4.28,4.28,0,0,1-1.37,3.72,4,4,0,0,1-2.61.91,4.08,4.08,0,0,1-2.66-.91,4.27,4.27,0,0,1-1.37-3.72v-7.65Z"/><path class="cls-7" d="M417,195.92h3.15a6.17,6.17,0,0,1,3.39.62,3.83,3.83,0,0,1,1.65,3.25,3.89,3.89,0,0,1-.72,2.36,3.32,3.32,0,0,1-2.69,1.32l3,4.52h-1.47l-3.41-5.27h.39a4.06,4.06,0,0,0,2.68-.62,2.92,2.92,0,0,0,.91-2.21,2.85,2.85,0,0,0-1.19-2.34,4.39,4.39,0,0,0-2.45-.44h-1.89V208H417Z"/><line class="cls-8" x1="215.38" y1="42.39" x2="427.91" y2="42.39"/><line class="cls-8" x1="215.38" y1="181.65" x2="427.91" y2="181.65"/><path id="_Tracé_transparent_" data-name="&lt;Tracé transparent&gt;" class="cls-9" d="M102.55,104.17a60.71,60.71,0,0,0-29.87,15.72c11.23,7.46,22.93-1.86,31.87-9a56,56,0,0,1,13.31-8.14s-30.7-14.14-44.47,1a41.32,41.32,0,0,0-10,21.54C78.56,105.8,102.51,104.17,102.55,104.17Zm0,0Z"/><path id="_Tracé_transparent_2" data-name="&lt;Tracé transparent&gt;" class="cls-9" d="M60,119.24a40.76,40.76,0,0,0,6.26-22.58c-.66-20.19-32.77-29.18-32.77-29.18a54.92,54.92,0,0,1,4.8,14.62c2.14,11.09,5,25.57,18.18,27.14A60,60,0,0,0,44,78.33S61,94.89,60,119.24ZM44,78.33Z"/><path class="cls-9" d="M96.55,179c.07-.1.15-.17.16-.12s0,.16.09.24.08.1.08,0a1.06,1.06,0,0,0-.26-.4,11.42,11.42,0,0,0-3.48-2.26,63.61,63.61,0,0,0-9.76-3.38c-6.86-1.87-14-3.31-21.07-4.74s-14.26-2.79-21.38-4.47l-2.67-.66-1.33-.35c-.45-.13-.86-.23-1.39-.4a10.33,10.33,0,0,1-4.87-3.63,11.45,11.45,0,0,1-2.31-5.46,5.23,5.23,0,0,1,.54-3.23,3.1,3.1,0,0,1,1.36-1.27,4.06,4.06,0,0,1,1.71-.33v1.67a1.56,1.56,0,0,0-1.5.82,3.5,3.5,0,0,0-.17,2.07,9.34,9.34,0,0,0,2.13,4.33A7.85,7.85,0,0,0,36.29,160c.33.1.81.19,1.24.27l1.32.26,2.66.47c7.11,1.17,14.31,2,21.52,2.92s14.45,1.85,21.72,3.29a68.84,68.84,0,0,1,11,3,26,26,0,0,1,2.85,1.27,13.9,13.9,0,0,1,3,2,9.17,9.17,0,0,1,1.49,1.67,7.08,7.08,0,0,1,1.09,5.48,8.59,8.59,0,0,1-.88,2.37Z"/><path class="cls-9" d="M57.08,147.71s.05,0,.08,0,0,0,.07-.05.07-.06.12-.11a.9.9,0,0,1,.14-.2,5.33,5.33,0,0,0,.5-1.26,19.83,19.83,0,0,0,.59-3.12c.29-2.18.43-4.41.56-6.64s.26-4.49.47-6.73a31.55,31.55,0,0,1,.46-3.36,11.49,11.49,0,0,1,1-3.24l.07,0a20.59,20.59,0,0,0-.75,6.6c0,2.23.07,4.46.13,6.71s.12,4.5,0,6.79a19.74,19.74,0,0,1-.45,3.51,7.38,7.38,0,0,1-.73,1.86c-.11.17-.24.32-.36.48a4.32,4.32,0,0,1-.5.45,3.51,3.51,0,0,1-.67.34,4.68,4.68,0,0,1-.75.11Z"/></svg>